<?xml version="1.0" encoding="UTF-8" standalone="no"?>
<!-- Generator: Adobe Illustrator 19.0.0, SVG Export Plug-In . SVG Version: 6.00 Build 0)  -->

<svg
   xmlns:dc="http://purl.org/dc/elements/1.1/"
   xmlns:cc="http://creativecommons.org/ns#"
   xmlns:rdf="http://www.w3.org/1999/02/22-rdf-syntax-ns#"
   xmlns:svg="http://www.w3.org/2000/svg"
   xmlns="http://www.w3.org/2000/svg"
   xmlns:sodipodi="http://sodipodi.sourceforge.net/DTD/sodipodi-0.dtd"
   xmlns:inkscape="http://www.inkscape.org/namespaces/inkscape"
   version="1.1"
   id="Layer_1"
   x="0px"
   y="0px"
   viewBox="0 0 495 495"
   style="enable-background:new 0 0 495 495;"
   xml:space="preserve"
   sodipodi:docname="icon-google-login.svg"
   inkscape:version="0.92.3 (2405546, 2018-03-11)"><metadata
   id="metadata6608"><rdf:RDF><cc:Work
       rdf:about=""><dc:format>image/svg+xml</dc:format><dc:type
         rdf:resource="http://purl.org/dc/dcmitype/StillImage" /><dc:title></dc:title></cc:Work></rdf:RDF></metadata><defs
   id="defs6606" /><sodipodi:namedview
   pagecolor="#ffffff"
   bordercolor="#666666"
   borderopacity="1"
   objecttolerance="10"
   gridtolerance="10"
   guidetolerance="10"
   inkscape:pageopacity="0"
   inkscape:pageshadow="2"
   inkscape:window-width="1366"
   inkscape:window-height="705"
   id="namedview6604"
   showgrid="false"
   inkscape:zoom="0.47676768"
   inkscape:cx="247.5"
   inkscape:cy="247.5"
   inkscape:window-x="-8"
   inkscape:window-y="-8"
   inkscape:window-maximized="1"
   inkscape:current-layer="Layer_1" />
<g
   id="g6571">
	<polygon
   style="fill:#CD2A00;"
   points="247.5,0 247.5,40 455,40 455,455 247.5,455 247.5,495 495,495 495,0  "
   id="polygon6561" />
	<polygon
   style="fill:#cd2a00;fill-opacity:1"
   points="40,455 40,40 247.5,40 247.5,0 0,0 0,495 247.5,495 247.5,455  "
   id="polygon6563" />
	<path
   style="fill-rule:evenodd;clip-rule:evenodd;fill:#cd2a00;fill-opacity:1"
   d="M175.766,373.03c-69.935,0-125.53-55.594-125.53-125.53   s55.594-125.53,125.53-125.53c34.073,0,62.767,12.554,84.287,34.074L225.98,188.32c-8.967-8.967-25.107-19.728-50.213-19.728   c-43.035,0-77.109,35.867-77.109,78.908s34.074,78.908,77.109,78.908c50.213,0,68.147-35.867,71.734-53.8h-71.734v-43.041h118.362   c1.793,7.174,1.793,12.554,1.793,21.52C295.921,322.821,247.5,373.03,175.766,373.03L175.766,373.03z"
   id="path6565" />
	<polygon
   style="fill-rule:evenodd;clip-rule:evenodd;fill:#cd2a00;fill-opacity:1"
   points="444.764,265.433 408.897,265.433 408.897,301.3    373.03,301.3 373.03,265.433 337.162,265.433 337.162,229.567 373.03,229.567 373.03,193.7 408.897,193.7 408.897,229.567    444.764,229.567  "
   id="polygon6567" />
	<path
   style="fill-rule:evenodd;clip-rule:evenodd;fill:#FF3501;"
   d="M444.764,264.909"
   id="path6569" />
</g>
<g
   id="g6573">
</g>
<g
   id="g6575">
</g>
<g
   id="g6577">
</g>
<g
   id="g6579">
</g>
<g
   id="g6581">
</g>
<g
   id="g6583">
</g>
<g
   id="g6585">
</g>
<g
   id="g6587">
</g>
<g
   id="g6589">
</g>
<g
   id="g6591">
</g>
<g
   id="g6593">
</g>
<g
   id="g6595">
</g>
<g
   id="g6597">
</g>
<g
   id="g6599">
</g>
<g
   id="g6601">
</g>
</svg>