<?xml version="1.0" encoding="UTF-8" standalone="no"?>
<!-- Generator: Adobe Illustrator 19.0.0, SVG Export Plug-In . SVG Version: 6.00 Build 0)  -->

<svg
   xmlns:dc="http://purl.org/dc/elements/1.1/"
   xmlns:cc="http://creativecommons.org/ns#"
   xmlns:rdf="http://www.w3.org/1999/02/22-rdf-syntax-ns#"
   xmlns:svg="http://www.w3.org/2000/svg"
   xmlns="http://www.w3.org/2000/svg"
   xmlns:sodipodi="http://sodipodi.sourceforge.net/DTD/sodipodi-0.dtd"
   xmlns:inkscape="http://www.inkscape.org/namespaces/inkscape"
   version="1.1"
   id="Layer_1"
   x="0px"
   y="0px"
   viewBox="0 0 495 495"
   style="enable-background:new 0 0 495 495;"
   xml:space="preserve"
   sodipodi:docname="icon-facebook-login.svg"
   inkscape:version="0.92.3 (2405546, 2018-03-11)"><metadata
   id="metadata2090"><rdf:RDF><cc:Work
       rdf:about=""><dc:format>image/svg+xml</dc:format><dc:type
         rdf:resource="http://purl.org/dc/dcmitype/StillImage" /><dc:title></dc:title></cc:Work></rdf:RDF></metadata><defs
   id="defs2088" /><sodipodi:namedview
   pagecolor="#ffffff"
   bordercolor="#666666"
   borderopacity="1"
   objecttolerance="10"
   gridtolerance="10"
   guidetolerance="10"
   inkscape:pageopacity="0"
   inkscape:pageshadow="2"
   inkscape:window-width="1366"
   inkscape:window-height="705"
   id="namedview2086"
   showgrid="false"
   inkscape:zoom="0.47676768"
   inkscape:cx="239.11017"
   inkscape:cy="247.5"
   inkscape:window-x="-8"
   inkscape:window-y="-8"
   inkscape:window-maximized="1"
   inkscape:current-layer="Layer_1" />
<g
   id="g2053">
	<polygon
   style="fill:#1A6FB0;"
   points="247.5,0 247.5,40 455,40 455,455 247.5,455 247.5,495 495,495 495,0  "
   id="polygon2047" />
	<polygon
   style="fill:#1a6fb0;fill-opacity:1"
   points="40,455 40,40 247.5,40 247.5,0 0,0 0,495 247.5,495 247.5,455  "
   id="polygon2049" />
	<path
   style="fill:#1a6fb0;fill-opacity:1"
   d="M205.767,405h65.266V247.413h43.798c0,0,4.104-25.428,6.103-53.235h-49.647v-36.264   c0-5.416,7.109-12.696,14.153-12.696h35.564V90h-48.366c-68.478,0-66.872,53.082-66.872,61.009v43.356h-31.771v53.029h31.771V405z"
   id="path2051" />
</g>
<g
   id="g2055">
</g>
<g
   id="g2057">
</g>
<g
   id="g2059">
</g>
<g
   id="g2061">
</g>
<g
   id="g2063">
</g>
<g
   id="g2065">
</g>
<g
   id="g2067">
</g>
<g
   id="g2069">
</g>
<g
   id="g2071">
</g>
<g
   id="g2073">
</g>
<g
   id="g2075">
</g>
<g
   id="g2077">
</g>
<g
   id="g2079">
</g>
<g
   id="g2081">
</g>
<g
   id="g2083">
</g>
</svg>